<?xml version="1.0" encoding="UTF-8"?>
<svg xmlns="http://www.w3.org/2000/svg" xmlns:xlink="http://www.w3.org/1999/xlink" id="wave" width="2049.77" height="815.263" viewBox="0 0 2049.77 815.263">
  <defs>
    <clipPath id="clip-path">
      <path id="Pfad_175476" data-name="Pfad 175476" d="M0,436.071H2049.77V-379.192H0Z" transform="translate(0 379.192)" fill="none"></path>
    </clipPath>
    <clipPath id="clip-path-2">
      <rect id="Rechteck_27724" data-name="Rechteck 27724" width="182.598" height="227.772" fill="none"></rect>
    </clipPath>
    <clipPath id="clip-path-3">
      <rect id="Rechteck_27725" data-name="Rechteck 27725" width="224.949" height="234.647" fill="none"></rect>
    </clipPath>
    <clipPath id="clip-path-4">
      <rect id="Rechteck_27726" data-name="Rechteck 27726" width="147.126" height="209.306" fill="none"></rect>
    </clipPath>
    <clipPath id="clip-path-5">
      <rect id="Rechteck_27727" data-name="Rechteck 27727" width="506.266" height="641.968" fill="none"></rect>
    </clipPath>
    <clipPath id="clip-path-6">
      <rect id="Rechteck_27728" data-name="Rechteck 27728" width="497.867" height="589.316" fill="none"></rect>
    </clipPath>
    <clipPath id="clip-path-7">
      <rect id="Rechteck_27729" data-name="Rechteck 27729" width="436.397" height="571.419" fill="none"></rect>
    </clipPath>
    <clipPath id="clip-path-8">
      <rect id="Rechteck_27730" data-name="Rechteck 27730" width="437.965" height="498.983" fill="none"></rect>
    </clipPath>
    <clipPath id="clip-path-9">
      <rect id="Rechteck_27731" data-name="Rechteck 27731" width="593.889" height="536.902" fill="none"></rect>
    </clipPath>
    <clipPath id="clip-path-10">
      <rect id="Rechteck_27732" data-name="Rechteck 27732" width="435.671" height="478.162" fill="none"></rect>
    </clipPath>
    <clipPath id="clip-path-11">
      <rect id="Rechteck_27733" data-name="Rechteck 27733" width="430.859" height="493.909" fill="none"></rect>
    </clipPath>
    <clipPath id="clip-path-12">
      <rect id="Rechteck_27734" data-name="Rechteck 27734" width="416.266" height="457.924" fill="none"></rect>
    </clipPath>
    <clipPath id="clip-path-13">
      <rect id="Rechteck_27735" data-name="Rechteck 27735" width="406.521" height="375.79" fill="none"></rect>
    </clipPath>
    <clipPath id="clip-path-14">
      <rect id="Rechteck_27736" data-name="Rechteck 27736" width="330.792" height="373.831" fill="none"></rect>
    </clipPath>
    <clipPath id="clip-path-15">
      <rect id="Rechteck_27737" data-name="Rechteck 27737" width="273.005" height="475.492" fill="none"></rect>
    </clipPath>
    <clipPath id="clip-path-16">
      <rect id="Rechteck_27738" data-name="Rechteck 27738" width="363.687" height="431.123" fill="none"></rect>
    </clipPath>
    <clipPath id="clip-path-17">
      <rect id="Rechteck_27739" data-name="Rechteck 27739" width="297.115" height="364.272" fill="none"></rect>
    </clipPath>
    <clipPath id="clip-path-18">
      <rect id="Rechteck_27740" data-name="Rechteck 27740" width="235.922" height="288.663" fill="none"></rect>
    </clipPath>
    <clipPath id="clip-path-19">
      <rect id="Rechteck_27741" data-name="Rechteck 27741" width="226.163" height="525.965" fill="none"></rect>
    </clipPath>
    <clipPath id="clip-path-20">
      <rect id="Rechteck_27742" data-name="Rechteck 27742" width="239.937" height="503.777" fill="none"></rect>
    </clipPath>
    <clipPath id="clip-path-21">
      <rect id="Rechteck_27743" data-name="Rechteck 27743" width="145.574" height="119.344" fill="none"></rect>
    </clipPath>
    <clipPath id="clip-path-22">
      <rect id="Rechteck_27744" data-name="Rechteck 27744" width="221.305" height="523.322" fill="none"></rect>
    </clipPath>
    <clipPath id="clip-path-23">
      <rect id="Rechteck_27745" data-name="Rechteck 27745" width="226.091" height="494.88" fill="none"></rect>
    </clipPath>
    <clipPath id="clip-path-24">
      <rect id="Rechteck_27746" data-name="Rechteck 27746" width="261.774" height="448.766" fill="none"></rect>
    </clipPath>
    <clipPath id="clip-path-25">
      <rect id="Rechteck_27747" data-name="Rechteck 27747" width="238.081" height="436.781" fill="none"></rect>
    </clipPath>
    <clipPath id="clip-path-26">
      <rect id="Rechteck_27748" data-name="Rechteck 27748" width="162.869" height="155.684" fill="none"></rect>
    </clipPath>
    <clipPath id="clip-path-27">
      <rect id="Rechteck_27749" data-name="Rechteck 27749" width="211.799" height="430.028" fill="none"></rect>
    </clipPath>
    <clipPath id="clip-path-28">
      <rect id="Rechteck_27750" data-name="Rechteck 27750" width="161.948" height="274.286" fill="none"></rect>
    </clipPath>
    <clipPath id="clip-path-29">
      <rect id="Rechteck_27751" data-name="Rechteck 27751" width="233.875" height="346.877" fill="none"></rect>
    </clipPath>
    <clipPath id="clip-path-30">
      <rect id="Rechteck_27752" data-name="Rechteck 27752" width="228.823" height="222.749" fill="none"></rect>
    </clipPath>
    <clipPath id="clip-path-31">
      <rect id="Rechteck_27753" data-name="Rechteck 27753" width="185.95" height="183.61" fill="none"></rect>
    </clipPath>
    <clipPath id="clip-path-32">
      <rect id="Rechteck_27754" data-name="Rechteck 27754" width="127.903" height="288.706" fill="none"></rect>
    </clipPath>
  </defs>
  <g id="Gruppe_64585" data-name="Gruppe 64585" clip-path="url(#clip-path)">
    <g id="Gruppe_64464" data-name="Gruppe 64464" transform="translate(1864.38 428.188)" opacity="0.15" style="mix-blend-mode: darken;isolation: isolate">
      <g id="Gruppe_64463" data-name="Gruppe 64463">
        <g id="Gruppe_64462" data-name="Gruppe 64462" clip-path="url(#clip-path-2)">
          <g id="Gruppe_64461" data-name="Gruppe 64461" transform="translate(23.959 15.049)">
            <path id="Pfad_175445" data-name="Pfad 175445" d="M38.8,4.4C48.238,1.85,57.3-1.248,66.712-3.822,40.2,10.155,28.586,32.285,21.968,53.265c-9.9,35.024-4.3,71.842,15.392,105.081,7.47,12.3,16.973,24.31,30.7,34.217,11.285,7.708,26.98,12.636,43.275,13.8-16.135-.133-32.246.673-48.378.279-12.8-.989-25.777-3.575-35.27-9.486-14.78-8.8-24.473-20.468-32.2-32.3C-28.737,125.567-29.86,80.191-6.319,40.672,2.982,26.278,16.351,11.52,38.8,4.4" transform="translate(23.344 3.822)" fill="#041b2b"></path>
          </g>
        </g>
      </g>
    </g>
    <g id="Gruppe_64468" data-name="Gruppe 64468" transform="translate(393.816 113.367)" opacity="0.15" style="mix-blend-mode: darken;isolation: isolate">
      <g id="Gruppe_64467" data-name="Gruppe 64467">
        <g id="Gruppe_64466" data-name="Gruppe 64466" clip-path="url(#clip-path-3)">
          <g id="Gruppe_64465" data-name="Gruppe 64465" transform="translate(23.959 15.049)">
            <path id="Pfad_175446" data-name="Pfad 175446" d="M90.715,13.539a312.993,312.993,0,0,1,31.737-25.312C100.6,24.029,79.971,60.138,58.4,96.013c-13.5,22.076-27.2,44.144-43.581,65.4-8.41,10.554-17.274,21.074-28.95,30.3-9.778,7.839-24.057,14.753-40.45,13.889,22.984-10.161,35.036-27.2,47.942-42.557,36.391-48.73,64.345-99.822,97.353-149.5" transform="translate(54.579 11.773)" fill="#041b2b"></path>
          </g>
        </g>
      </g>
    </g>
    <g id="Gruppe_64472" data-name="Gruppe 64472" transform="translate(808.163 445.102)" opacity="0.15" style="mix-blend-mode: darken;isolation: isolate">
      <g id="Gruppe_64471" data-name="Gruppe 64471">
        <g id="Gruppe_64470" data-name="Gruppe 64470" clip-path="url(#clip-path-4)">
          <g id="Gruppe_64469" data-name="Gruppe 64469" transform="translate(23.959 15.049)">
            <path id="Pfad_175447" data-name="Pfad 175447" d="M0,2.65C9.858.8,19.628-3.98,30.148-1.7,40.1,1.033,44.486,8.055,48.192,14.146c5.556,10.09,8.5,20.674,11.41,31.192C67.91,78.62,71.632,112.3,80.11,145.563c3.932,15.1,8.777,30.343,19.1,44.241-10.875-9.759-21.667-19.563-32.118-29.509-8.867-11.425-13.1-24.031-16.9-36.485C40.075,91.153,36.758,57.671,23.392,25.427,18.832,16.941,14.713,5.957,0,2.65" transform="translate(0 2.305)" fill="#041b2b"></path>
          </g>
        </g>
      </g>
    </g>
    <g id="Gruppe_64476" data-name="Gruppe 64476" transform="translate(1567.463 -15.05)" opacity="0.15" style="mix-blend-mode: darken;isolation: isolate">
      <g id="Gruppe_64475" data-name="Gruppe 64475">
        <g id="Gruppe_64474" data-name="Gruppe 64474" clip-path="url(#clip-path-5)">
          <g id="Gruppe_64473" data-name="Gruppe 64473" transform="translate(23.958 15.049)">
            <path id="Pfad_175448" data-name="Pfad 175448" d="M286.173,9.271c-48.28,82.9-87.8,167.8-133.089,251.4-17.037,31.51-34.73,62.915-55.292,93.549-15.459,22.416-31.684,45.015-55.712,64.212a117.847,117.847,0,0,1-47.843,22.82c-10.635,2.786-22.2,3.711-32.73,6.674-26.264,7.7-45.011,22.9-60.161,38.257-21.371,22.431-35.563,48-38.5,74.371-2.042,19.836,1.762,44.733,30.925,56.158-13.694-3.167-27.372-6.461-40.5-10.514-19.992-9.211-24.707-26.011-25.436-40.839-.349-26.959,12.845-53.363,32.448-76.946a180.371,180.371,0,0,1,38.867-34.318C-90.412,447.706-78.43,442-64.478,439.338c12.2-2.122,24.662-3.844,36.2-7.256,27.537-7.841,45.591-24.4,60.485-40.583,26.293-29.481,45.266-61.342,63.837-93.093C151.932,200.213,197.214,99.614,254.909,1.841c9.789-4.081,20.538-7.022,31.264-9.9Z" transform="translate(172.177 8.062)" fill="#041b2b"></path>
          </g>
        </g>
      </g>
    </g>
    <g id="Gruppe_64480" data-name="Gruppe 64480" transform="translate(1500.613 15.744)" opacity="0.15" style="mix-blend-mode: darken;isolation: isolate">
      <g id="Gruppe_64479" data-name="Gruppe 64479">
        <g id="Gruppe_64478" data-name="Gruppe 64478" clip-path="url(#clip-path-6)">
          <g id="Gruppe_64477" data-name="Gruppe 64477" transform="translate(23.958 15.05)">
            <path id="Pfad_175449" data-name="Pfad 175449" d="M252.208,15.716c14.043-10.572,29.738-20.238,46-29.382-43.5,72.539-79.437,146.83-118.862,220.311-17.075,31.62-34.381,63.214-54.461,94.1-11.969,18.249-24.733,36.372-40.813,53.286-11.825,12.227-25.891,24.261-45.6,31.534-16.3,5.986-35.35,7.054-53.1,10.256-20.788,4.674-36.18,15.689-49.3,26.634-20.07,17.288-35.148,36.928-44.96,57.571-7.864,17.361-12.592,35.785-7.93,53.819,2.138,9.282,8.173,18.529,19.641,24.607-12.246-3.672-24.108-7.869-35.677-12.356-14.125-7.927-17.95-20.591-18.789-32.127-1.161-22.057,8.263-43.826,21.816-63.917a190.511,190.511,0,0,1,42.306-44.415c9.935-7.28,21.134-14.375,35.422-17.89,17.932-3.844,37.543-2.563,55.276-6.964A88.68,88.68,0,0,0,37.4,364.016c17.075-13.341,29.272-28.887,40.9-44.385,21.105-29.261,38.6-59.54,55.619-89.87,39.628-71.3,75.1-143.586,118.293-214.045" transform="translate(151.741 13.666)" fill="#041b2b"></path>
          </g>
        </g>
      </g>
    </g>
    <g id="Gruppe_64484" data-name="Gruppe 64484" transform="translate(1637.333 71.29)" opacity="0.15" style="mix-blend-mode: darken;isolation: isolate">
      <g id="Gruppe_64483" data-name="Gruppe 64483">
        <g id="Gruppe_64482" data-name="Gruppe 64482" clip-path="url(#clip-path-7)">
          <g id="Gruppe_64481" data-name="Gruppe 64481" transform="translate(23.959 15.051)">
            <path id="Pfad_175450" data-name="Pfad 175450" d="M242.549,40.613C217.986,86.69,194.322,132.971,168.218,178.7,145.7,217.662,122.829,256.807,90.6,292.929c-16.036,17.022-35.2,34.632-64.513,42.714C12.451,339.7-3.01,339.816-16.72,343.7c-15.951,4.251-28.918,11.939-40.312,20.109-33.888,26.228-51.927,60.357-53.135,94.366-.013,14.88,3.434,30.317,14.99,43.411,6.522,7.637,16.907,13.633,29.041,17.318-14.474-2.062-28.972-4.255-43-7.353-24.619-8.013-34.133-26.617-36.316-43.215-3.676-35.626,14.263-71.567,46.371-100.4,15.965-14.08,37.125-27.258,64.295-31.164,19.681-2.69,38.922-8.123,53.444-17.307,19.431-11.8,33.3-26.733,45.985-41.727,19.287-23.835,35.262-48.7,50.183-73.788,46.523-78.853,84.686-159.614,127.727-239.263Z" transform="translate(145.93 35.316)" fill="#041b2b"></path>
          </g>
        </g>
      </g>
    </g>
    <g id="Gruppe_64488" data-name="Gruppe 64488" transform="translate(294.523 74.758)" opacity="0.15" style="mix-blend-mode: darken;isolation: isolate">
      <g id="Gruppe_64487" data-name="Gruppe 64487">
        <g id="Gruppe_64486" data-name="Gruppe 64486" clip-path="url(#clip-path-8)">
          <g id="Gruppe_64485" data-name="Gruppe 64485" transform="translate(23.959 15.051)">
            <path id="Pfad_175451" data-name="Pfad 175451" d="M226.929.36A98.123,98.123,0,0,1,253.515.9c-29.56,53.3-56.072,107.313-87.54,160.175-10.286,17.086-21.2,34.05-33.968,50.433-9.847,11.941-20.418,24.086-36.292,33.138-10.523,6.125-24.1,9.024-36.532,13.061C32.5,266.867,16.155,284.136.675,300.2c-23.767,25.527-42.719,52.742-62.868,79.5-12.317,16.905-25.13,33.714-35.129,51.267-6.836,11.991-11.889,24.613-11.806,37.475.5,4.625,1.547,9.8,7.345,13.025a245.529,245.529,0,0,1-29.022-5.627,13.046,13.046,0,0,1-4.877-7.6c-2.9-12.1,2.119-24.218,7.526-35.7,13.816-26.63,34.328-51.52,52.755-76.869,21.078-27.245,41.3-55.15,70.721-79.167,7.1-5.607,14.772-11.027,24.19-15.028,13.992-6.729,32.227-8.434,45.8-15.615,18.81-9.649,30.22-23.721,41.278-37.182,18.736-24.471,33.691-50.041,48.3-75.628C179.687,89,202.608,44.519,226.929.36" transform="translate(136.532 0.313)" fill="#041b2b"></path>
          </g>
        </g>
      </g>
    </g>
    <g id="Gruppe_64492" data-name="Gruppe 64492" transform="translate(1311.538 81.104)" opacity="0.15" style="mix-blend-mode: darken;isolation: isolate">
      <g id="Gruppe_64491" data-name="Gruppe 64491">
        <g id="Gruppe_64490" data-name="Gruppe 64490" clip-path="url(#clip-path-9)">
          <g id="Gruppe_64489" data-name="Gruppe 64489" transform="translate(23.959 15.051)">
            <path id="Pfad_175452" data-name="Pfad 175452" d="M310.4,23.031c15.27-14.8,31.74-29.1,48.815-43.058-40.629,63.5-73.687,128.862-110.951,193.186-16.348,27.909-33.015,55.814-53.851,82.474-9.943,12.294-20.511,24.581-34.985,34.929a74.74,74.74,0,0,1-38.675,13.93c-16.364.823-32.97-1.118-49.171,1.064-15.549,2.7-27.582,10.275-37.858,17.9a192.513,192.513,0,0,0-48.093,53.961c-11.029,19.073-18.571,39.6-14.937,60.071,1.794,9.193,6.394,19.249,18.741,24.826-3.226,2.746-5.481,5.947-8.913,8.594-7.228.039-13.712,2.483-19.51,5.025-12.751,5.882-23.509,13.4-36.46,19.116-6.852,2.832-14.868,5.47-23.243,4.377a29.375,29.375,0,0,1-14.434-6.532c-9.187-7.789-14.117-17.194-18.856-26.376-13.271-25.357-19.38-52.432-38.166-76.482-13.846-7.611-16.665-20.268-16.609-31.345.655-26.746,16.486-52.441,37.261-75.22,9.123-9.78,19.585-19.208,33.029-26.705,6.921-3.657,15.927-6.665,25.109-5.222,11.9,3.468,23.583,7.254,35.289,11-11-1.582-21.47,2.088-29.381,6.68-14.4,8.351-25.175,18.888-34.929,29.586-18.2,20.58-31.879,43.288-35.19,67.039-1.206,11.472-.761,24.016,9.418,33.955,4.078,4.154,11.274,6.269,16.638,9.507,14.644,19.389,22.047,40.77,38.1,59.757,5.766,6.4,14.6,14.113,27.691,12.773,13.976-1.858,22.678-9.907,34.12-14.732-8.708,2.4-18.994,1-25.407-3.543-14.54-9.746-21.808-22.8-31.855-34.419-8.1-4.057-17.013-7.458-24.654-11.881-9.352-6.293-12.214-15.261-13.337-23.656-1.762-17.57,4.643-35.017,13.891-51.409a187.43,187.43,0,0,1,42.8-50.426c11.95-9.58,28.921-21.805,50.231-17.49,12.946,3.614,25.748,7.437,38.723,11.012-8.963-1.105-18.784-1.821-27.012,1.324-17.232,5.919-29.107,16.437-40.1,26.537C-71.123,337.742-89.755,365.7-93.487,395.2c-1.147,12.842-.242,27.838,14.761,37.533C-68.716,437.6-58.35,442.2-47.819,446.6c-12.951-9.436-14.695-22.693-14.53-34.72,3.013-33.179,24.435-64.8,53.79-91.715,10.276-8.925,21.664-17.877,37.283-23.011,12.224-3.722,26.238-2.47,38.856-.327,2.284.611,3.809-1,5.372-1.769,12.049-7.807,21-17.29,29.464-26.787,39.143-46.021,65.94-95.9,104.311-142.171C223.8,107.135,242.3,88.711,260.811,70.329c-33.473,45.23-60.227,92.353-90.375,138.522-14.937,22.409-29.861,44.989-49.946,65.719C110.346,284.346,99,295.1,80.821,298.917c9.517,1.471,19.96,2.124,29.179-.471,17.4-4.777,28.846-15.244,38.875-25.131,19.787-20.436,34.442-42.712,48.759-64.908C236.649,146.979,268.861,83.8,310.4,23.031" transform="translate(186.754 20.027)" fill="#041b2b"></path>
          </g>
        </g>
      </g>
    </g>
    <g id="Gruppe_64496" data-name="Gruppe 64496" transform="translate(242.167 81.754)" opacity="0.15" style="mix-blend-mode: darken;isolation: isolate">
      <g id="Gruppe_64495" data-name="Gruppe 64495">
        <g id="Gruppe_64494" data-name="Gruppe 64494" clip-path="url(#clip-path-10)">
          <g id="Gruppe_64493" data-name="Gruppe 64493" transform="translate(23.959 15.05)">
            <path id="Pfad_175453" data-name="Pfad 175453" d="M223.883,6.959c8.5-5.3,18.709-9.475,29.171-13.01-29.1,52.23-56.189,104.991-87.546,156.7-11.971,19.423-24.382,38.818-40.437,57.007-12.179,14.007-28.484,28.436-53.54,33.056-18.93,3.221-36.2,9.922-48.807,19.668-34.28,25.845-55.949,57.231-79.684,87.286-16.87,23.091-35.44,45.907-46.366,70.557-4.353,11.776-10.047,25.316-.764,36.69-.17-.047-.506-.146-.671-.2-8.3-2.918-16.295-6.229-23.961-9.772-7.835-6.409-6.1-15.4-5.029-22.99,4.124-17.918,15.142-34.725,26.5-51.151,12.544-17.759,26.216-35.165,40.033-52.52,17.586-21.294,35.44-42.929,61.263-60.624A92.4,92.4,0,0,1,18.721,246.1c13.593-4.169,29.616-3.513,42.836-8.359,19.577-7.495,31.33-20.668,42.173-33.127,20.613-24.921,36.327-51.338,52.007-77.667,23.112-39.9,45.4-80.014,68.147-119.987" transform="translate(134.699 6.051)" fill="#041b2b"></path>
          </g>
        </g>
      </g>
    </g>
    <g id="Gruppe_64500" data-name="Gruppe 64500" transform="translate(350.467 83.035)" opacity="0.15" style="mix-blend-mode: darken;isolation: isolate">
      <g id="Gruppe_64499" data-name="Gruppe 64499">
        <g id="Gruppe_64498" data-name="Gruppe 64498" clip-path="url(#clip-path-11)">
          <g id="Gruppe_64497" data-name="Gruppe 64497" transform="translate(23.959 15.051)">
            <path id="Pfad_175454" data-name="Pfad 175454" d="M224.12,0A102,102,0,0,1,248.1,13.569c-21.347,38.795-41.614,77.83-63.392,116.524-14.445,25.49-29.323,50.934-47.758,75.349C126.4,218.4,115.5,231.97,97.4,241.221c-13.933,7.179-32.941,7.8-47.042,14.8-18.587,8.809-31,21.726-43.011,34.166-21.914,23.3-39.442,48.132-57.9,72.6-11.7,15.942-23.932,31.728-35.041,47.848-11.274,16.918-21.728,34.836-19.976,53.569.855,4.444,2.3,10.075,9.349,12.184-9.948.473-19.96.387-29.9-.052-4.858-1.468-6.783-5.123-7.859-8.293-3.663-16.761,4.808-33.411,14.141-48.872,12.033-19.15,26.435-37.625,40.064-56.3C-54.743,329.96-31.99,295.765,3.36,266.75,15,257.284,30.817,250.288,48.379,246.214c27.734-6.755,43.565-24.069,56.772-40.134,26.514-34.112,45.767-70.294,65.613-106.176,17.9-33.276,35.55-66.611,53.356-99.9" transform="translate(134.842)" fill="#041b2b"></path>
          </g>
        </g>
      </g>
    </g>
    <g id="Gruppe_64504" data-name="Gruppe 64504" transform="translate(409.611 116.431)" opacity="0.15" style="mix-blend-mode: darken;isolation: isolate">
      <g id="Gruppe_64503" data-name="Gruppe 64503">
        <g id="Gruppe_64502" data-name="Gruppe 64502" clip-path="url(#clip-path-12)">
          <g id="Gruppe_64501" data-name="Gruppe 64501" transform="translate(23.958 15.05)">
            <path id="Pfad_175455" data-name="Pfad 175455" d="M173.839,65.056C197.75,24.782,218.706-16.2,242.174-56.57a211.674,211.674,0,0,1,21.584,25.041C247.211-3.284,231.4,25.132,215.026,53.415c-14.684,24.895-29.328,49.876-47.862,73.7-10.039,12.111-20.157,25.2-38.073,33.252-13.862,6.583-32.158,2.193-47.186,6.5-13.987,3.913-23.85,11.9-32.853,19.537C23.34,209.815,4.764,236-15.223,261.52c-13.2,18.086-28.069,35.666-40.884,53.875-11.372,16.336-20.259,34.131-17.2,52.249,1.291,4.665,3.29,11.784,12.642,11.874-10.75,2.025-21.749,3.447-32.773,4.635-8.372-1.434-9.954-7.927-10.856-12.64-2.532-21.872,11.45-42.566,25.492-61.931,26-34,50.263-68.6,78.761-101.787,15.1-15.727,29.294-33.379,55.137-42.768,11.878-3.969,26.041-3.612,37.764-7.837,16.462-5.811,26.751-16.506,36.053-26.651,17.956-20.913,31.612-43.209,44.923-65.485" transform="translate(104.59 56.57)" fill="#041b2b"></path>
          </g>
        </g>
      </g>
    </g>
    <g id="Gruppe_64508" data-name="Gruppe 64508" transform="translate(147.119 169.897)" opacity="0.15" style="mix-blend-mode: darken;isolation: isolate">
      <g id="Gruppe_64507" data-name="Gruppe 64507">
        <g id="Gruppe_64506" data-name="Gruppe 64506" clip-path="url(#clip-path-13)">
          <g id="Gruppe_64505" data-name="Gruppe 64505" transform="translate(23.958 15.048)">
            <path id="Pfad_175456" data-name="Pfad 175456" d="M198.664,23.216C211.154,8.383,224.675-6.1,239.08-20.188c-28.993,40.226-54.088,81.64-84.524,121.443-11.234,13.857-22.58,28-39.324,39.476-13.4.828-26.693,3.625-36.854,9.613-16.588,9.273-29.555,20.919-41.063,32.893C20.6,200.673,6.051,218.922-8.359,237.182c-15.129,20.361-30.992,40.837-38.355,63.083-2.606,8.336-4.35,17.181-.394,25.467,2.468,4.777,9.97,7,15.174,10.339-10.771,3.661-25.143,3.227-33.6-2.857-16.478-11.272-22.649-26.729-31.317-40.76-6.075-5.244-12.65-10.275-18.185-15.766-5.838-7.779-4.925-16.794-3.125-25.116,6.078-24.97,24.513-47.73,43.719-69.419,12.719-13.842,26.123-27.6,43.456-39.25,10.151-6.358,23.493-12.062,38.321-10.729,10.547,1.823,21.11,3.6,31.82,5.027C19.2,137.807,3.6,147.46-8.372,156.875c-21.35,17.574-38.193,37.2-54.3,56.9-14.309,18.434-28.05,37.533-32.885,58.1-1.571,8.3-3.019,17.512,4.2,24.936,7.025,5.541,14.162,11.051,21.837,16.232-5.308-7.82-4.315-16.69-2.372-24.931,5.936-21.341,20.567-41.089,35.153-60.417C-17,203.605,2.114,178.876,29.416,157.9c11.937-8.585,26.986-17.471,45.969-17.542,3.213.037,6.653.557,9.679.174,20.573-19.449,40.24-39.3,59.612-59.256-16.67,20.219-33.508,40.459-52.816,59.7,3.652-.443,9.256,1.46,11.825-.888,19.742-17.4,33.95-37.029,48.905-56.222,15.15-20.285,30.058-40.644,46.073-60.654" transform="translate(119.526 20.188)" fill="#041b2b"></path>
          </g>
        </g>
      </g>
    </g>
    <g id="Gruppe_64512" data-name="Gruppe 64512" transform="translate(536.129 172.103)" opacity="0.15" style="mix-blend-mode: darken;isolation: isolate">
      <g id="Gruppe_64511" data-name="Gruppe 64511">
        <g id="Gruppe_64510" data-name="Gruppe 64510" clip-path="url(#clip-path-14)">
          <g id="Gruppe_64509" data-name="Gruppe 64509" transform="translate(23.96 15.05)">
            <path id="Pfad_175457" data-name="Pfad 175457" d="M116.436,65.486c28.258-40.052,50.383-81.743,76.256-122.43C199.956-45.407,206.6-33.7,212.82-21.912c-24.832,35.858-45.431,72.977-72.473,108.218-7.805,9.4-15.2,19.187-26.267,27.178-10.116,1.109-21.6-.611-30.481,3.483C70.188,122.8,60.953,131.643,51.8,140.05,33.384,158.23,17.976,177.576.787,196.229c-10.124,11.522-21.23,22.786-28.719,35.176-8.316,14.454-11.591,30.459-7.142,45.687,1.728,5.246,5.537,12.9,15.959,12.234-11.255,3.689-22.6,7.336-34.341,10.329-5.833.376-10.433-2.664-12.139-6-5.782-9.426-4.92-19.887-3.069-29.769,2.673-14.141,11.71-27.339,22.141-39.745,12.815-14.925,25.692-29.831,38.161-44.886,14.253-16.723,27.917-33.8,46.03-48.964,8.178-6.51,17.261-13.586,30.276-15.835-2.572-.368-5.274-.144-7.8-.49,10.853-1.658,18.85-7.3,25.415-12.788,12.682-10.959,22.01-23.321,30.878-35.688" transform="translate(70.054 56.944)" fill="#041b2b"></path>
          </g>
        </g>
      </g>
    </g>
    <g id="Gruppe_64516" data-name="Gruppe 64516" transform="translate(-23.466 211.805)" opacity="0.15" style="mix-blend-mode: darken;isolation: isolate">
      <g id="Gruppe_64515" data-name="Gruppe 64515">
        <g id="Gruppe_64514" data-name="Gruppe 64514" clip-path="url(#clip-path-15)">
          <g id="Gruppe_64513" data-name="Gruppe 64513" transform="translate(23.959 15.049)">
            <path id="Pfad_175458" data-name="Pfad 175458" d="M25.007.943C31.577-1.526,39.872-1.3,46.49.981c9.578,4.928,18.685,10.247,27.473,15.742A38.514,38.514,0,0,0,45.9,18.867c-11.3,5.3-19.106,13-25.29,20.956C3.244,63.469,1.621,91.735,16.574,116.088c10.624,17.318,26.443,33.043,37.879,50.125,13.105,18.537,21.094,38.373,27.782,58.22,10.827,31.747,18.368,63.95,30.843,95.456,7.2,16.671,14.844,33.948,31.828,47.711,11.734,9.991,30.577,14.854,43.312,24.172,10.766,7.985,17.29,17.946,21.824,28.019-10.068,12.687-20.418,25.3-31.357,37.683-5.769-15.7-12.4-31.687-26.53-45.249-11.689-11.393-27.065-21.111-37.1-33.239C98.875,359.87,90.915,338.441,83.8,317.309,64.64,260.615,58.872,201.566,25.018,147.3,14.51,129.457.926,112.39-7.556,94.066-18.268,71.11-18.034,45.626-3.31,23.423,2.912,14.606,11.414,5.666,25.007.943" transform="translate(15.046 0.82)" fill="#041b2b"></path>
          </g>
        </g>
      </g>
    </g>
    <g id="Gruppe_64520" data-name="Gruppe 64520" transform="translate(1710.042 224.43)" opacity="0.15" style="mix-blend-mode: darken;isolation: isolate">
      <g id="Gruppe_64519" data-name="Gruppe 64519">
        <g id="Gruppe_64518" data-name="Gruppe 64518" clip-path="url(#clip-path-16)">
          <g id="Gruppe_64517" data-name="Gruppe 64517" transform="translate(23.959 15.05)">
            <path id="Pfad_175459" data-name="Pfad 175459" d="M197.152,39.19c-20.144,33.089-40.8,66.166-67.447,97.326-16.031,18.006-33.835,36.9-62.359,47.6-1.174.755-6.437,1-3.258,2.073-17.724,4.934-30.324,15.136-40.064,25.555A110.3,110.3,0,0,0-3.1,272.925a104.229,104.229,0,0,0,14.889,68.086c8.367,12.657,19.172,25.563,37.189,33.51,7.129,3.453,15.97,4.592,24.611,5.323-17-.2-34.016-.533-50.982-1.243-25.86-3.713-41.55-19.43-51.357-34.151-20.775-34.3-17.908-73.577,2.505-107.663,12.493-19.924,32.874-40.319,65.9-47.537-10.47.9-21.27.654-31.386,2.832C-15.81,196.755-34.2,209.145-47.374,222.5c-24.678,25.45-35.334,56-33.628,85.841,1.355,16.14,6.759,32.489,19.417,46.571A67.881,67.881,0,0,0-22.348,376.37c-14.791-.737-29.533-2.017-44.114-3.75-30.43-6.555-44.931-27.873-49.792-46.872-7.968-34.529,4.483-70.86,33.154-100.405,16.942-17.441,43.214-33.486,76.362-35.365,24.459-1.116,46.611-9.838,62.3-21.715,24.193-17.972,40.746-39.521,56.444-60.888C144.7,61.354,170.6,13.514,197.152-34.078Z" transform="translate(118.617 34.078)" fill="#041b2b"></path>
          </g>
        </g>
      </g>
    </g>
    <g id="Gruppe_64524" data-name="Gruppe 64524" transform="translate(18.995 243.95)" opacity="0.15" style="mix-blend-mode: darken;isolation: isolate">
      <g id="Gruppe_64523" data-name="Gruppe 64523">
        <g id="Gruppe_64522" data-name="Gruppe 64522" clip-path="url(#clip-path-17)">
          <g id="Gruppe_64521" data-name="Gruppe 64521" transform="translate(23.96 15.051)">
            <path id="Pfad_175460" data-name="Pfad 175460" d="M22.589,4.862C32.066-1.53,47.253-7.352,60.761-2.327c10.028,5.175,19.2,11,28.98,16.368-16.353-5.76-33,2.541-43.672,10.1C22.687,41.5,8.871,64.159,7.511,87.151c-.878,13.422,4.243,27.253,16.537,38.242,4.156,3.384,7.012,7.411,11.426,10.649-6.541-9.686-8.066-20.524-6.519-30.979,4.084-24.112,20.919-47.156,45.937-65.139,10.531-7.273,26.509-15.54,42.647-10.668,9.706,4.687,19.159,9.585,29.017,14.13-10.96-3.047-22.78.344-31.266,4.934C100.215,56.2,88.864,66.6,78.738,77.173c-18.187,19.774-31.644,42.559-28.745,65.9,1.235,12.838,14.961,22.807,25.032,33.2C66.476,160.335,72.17,143,80.33,127.513c9.592-17.432,23.77-33.74,40.663-48.633,10.425-8.619,21.409-17.757,37.163-22.435,5.968-1.791,12.9-1.578,19.066-.3,10.4,3.414,20.743,6.9,31.346,10.058-10.529-1.232-21.417.866-29.565,5.265C165.41,78.536,154.881,87.7,144.955,96.878c-19.9,19.3-37.543,39.968-47.241,62.414-4.874,12.15-8.122,25.394-1.7,37.545-.836.686-3.863-4.474-3.785-2.034,10.691,22.132,18.326,44.851,29.563,66.882,5.654,10.236,11.508,20.732,22.173,29.3a41.617,41.617,0,0,0,27.739,8.469c14.133-.436,26.951-5.029,40.98-5.859,8.468-.419,17.165,1.546,22.926,5.639-11.175,14.564-22.359,29.126-33.774,43.6a43.788,43.788,0,0,0-24.092-16.779c-9.586-2.866-20.336-3.092-30.345-5.05-9.208-1.675-17.628-5.2-23.6-10.036-13.047-10.148-19.521-22.913-25.628-35.284-18.906-39.975-25.5-82.313-50.274-121.142-10.369-15.4-26.065-28.922-40.349-42.834C-7.509,97.185-15.306,79.476-13.272,61.988-11.3,41.186.318,20.215,22.589,4.862" transform="translate(13.591 4.228)" fill="#041b2b"></path>
          </g>
        </g>
      </g>
    </g>
    <g id="Gruppe_64528" data-name="Gruppe 64528" transform="translate(669.641 245.739)" opacity="0.15" style="mix-blend-mode: darken;isolation: isolate">
      <g id="Gruppe_64527" data-name="Gruppe 64527">
        <g id="Gruppe_64526" data-name="Gruppe 64526" clip-path="url(#clip-path-18)">
          <g id="Gruppe_64525" data-name="Gruppe 64525" transform="translate(23.96 15.05)">
            <path id="Pfad_175461" data-name="Pfad 175461" d="M63.671,48.661C88.623,19.18,107.558-12.205,130.54-42.314,137.219-28.479,143.731-14.6,149.7-.63c-12.022,13.3-22.178,27.264-33.324,40.869-12.427,4.085-29,3.724-38.989,11.186C60.764,62,48.2,74.831,34.476,86.925,20.825,99.263,6.229,111.819.228,126.747c-4.925,12.859-6.256,26.4-3.019,39.5,1.832,5.994,4.014,12.7,11.631,16.815,7.795,3.782,17.4-.082,24.787-2.382,18.3,19.875,6.312,28.614,24.675,48.472-10.129-6.721-4.869,1.911-15.427-4.536C29.642,213.3,24.006,199.2,12.634,187.261,6.862,189.278.417,190.585-5,192.973c4.049,5.029,9.639,9.5,15.1,13.938-8.29-3.614-16.2-7.63-24.872-10.845-3.8-.443-8.1.424-11.271-1.531-7.449-4.461-9.4-11.309-11.053-17.5-3.82-19.9,1.225-40.945,17.9-58.1,15.3-15.671,31.652-30.919,47.87-46.2,10.1-8.6,20.024-18.34,35.7-22.994-.49-.271-1.861-.525-.7-1.086" transform="translate(38.308 42.314)" fill="#041b2b"></path>
          </g>
        </g>
      </g>
    </g>
    <g id="Gruppe_64532" data-name="Gruppe 64532" transform="translate(1001.702 291.448)" opacity="0.15" style="mix-blend-mode: darken;isolation: isolate">
      <g id="Gruppe_64531" data-name="Gruppe 64531">
        <g id="Gruppe_64530" data-name="Gruppe 64530" clip-path="url(#clip-path-19)">
          <g id="Gruppe_64529" data-name="Gruppe 64529" transform="translate(23.958 15.049)">
            <path id="Pfad_175462" data-name="Pfad 175462" d="M43.587.122C54.193-.166,64.764-.19,75.381.1c-11.3,1.767-19.894,7.288-27.6,12.588C22.615,30.89,7.029,54.71,5.8,79.181c-.607,12.236,1.738,25.331,12.616,35.705,7.664,7.585,21.446,10.387,32.323,15.458,8.841,4.025,15.283,9.948,19.031,16.471,9.347,15.284,12.459,31.753,15.855,47.926C97.119,258.008,97.4,321.9,109.972,385.107a271.243,271.243,0,0,0,16.151,52.471c9.554,21.3,20.788,42.4,25.9,64.416a196.774,196.774,0,0,1-35.672,6.667c-6.975-32.594-26.222-63.419-33.987-95.914-19.4-76.884-15.1-155.264-31.258-232.368-4.406-15.54-7.257-32.353-22.125-45.447C18.825,126.374.5,124.755-10.4,116.753c-9.04-6.852-13.084-15.83-14.716-24.615-5.231-26.712,8.33-54.348,34.831-74.96C18.854,10.147,29.228,2.444,43.587.122" transform="translate(26.224 0.106)" fill="#041b2b"></path>
          </g>
        </g>
      </g>
    </g>
    <g id="Gruppe_64536" data-name="Gruppe 64536" transform="translate(1065.262 293.137)" opacity="0.15" style="mix-blend-mode: darken;isolation: isolate">
      <g id="Gruppe_64535" data-name="Gruppe 64535">
        <g id="Gruppe_64534" data-name="Gruppe 64534" clip-path="url(#clip-path-20)">
          <g id="Gruppe_64533" data-name="Gruppe 64533" transform="translate(23.959 15.049)">
            <path id="Pfad_175463" data-name="Pfad 175463" d="M26.521,6.868C34.8,1.418,43.742-5.269,56.3-5.972,66.955-5.245,77.6-4.379,88.127-3.1,70.243-.586,58.692,9.813,48.355,18.768,25.61,40.053,12.388,66.152,16.008,92.158,17.723,101,21.673,110.1,31.131,116.842c9.725,6.865,24.387,9.426,34.73,15.8a42.354,42.354,0,0,1,15.845,16c7.874,13.36,11.495,27.554,14.825,41.63,11.766,53.662,13.917,108.007,26.24,161.637,3.663,14.71,7.9,29.449,15.137,43.636,8.042,16.781,22.529,31.88,31.016,48.558,2.96,5.22,4.595,10.69,7.137,16a357.585,357.585,0,0,1-39.58,20.492c-5.172-17.267-13.728-33.976-23.336-50.4a213.884,213.884,0,0,1-21.68-55.846C77.774,315.692,76.576,256.2,66.082,197.308c-3.088-16.071-6.389-32.237-13.6-47.8-3.9-7.508-8.3-15.383-17.655-20.831-10.853-7.117-27.265-9.548-36.782-17.647-11.447-9.78-14.458-22.6-13.947-34.561.724-25.508,16.747-50.381,42.423-69.6" transform="translate(15.956 5.972)" fill="#041b2b"></path>
          </g>
        </g>
      </g>
    </g>
    <g id="Gruppe_64540" data-name="Gruppe 64540" transform="translate(1543.608 293.185)" opacity="0.15" style="mix-blend-mode: darken;isolation: isolate">
      <g id="Gruppe_64539" data-name="Gruppe 64539">
        <g id="Gruppe_64538" data-name="Gruppe 64538" clip-path="url(#clip-path-21)">
          <g id="Gruppe_64537" data-name="Gruppe 64537" transform="translate(23.958 15.05)">
            <path id="Pfad_175464" data-name="Pfad 175464" d="M17.741,36.9C40.262,13.674,64.168-8.993,86.982-32.084,67.5-8.845,49.841,15.044,30.769,38.438c-9.152,10.855-18.5,21.7-29.983,31.624-3.652-.942-8.471-1.477-11.46-2.821C-1.085,57.188,8.456,47.081,17.741,36.9" transform="translate(10.674 32.084)" fill="#041b2b"></path>
          </g>
        </g>
      </g>
    </g>
    <g id="Gruppe_64544" data-name="Gruppe 64544" transform="translate(936.982 293.503)" opacity="0.15" style="mix-blend-mode: darken;isolation: isolate">
      <g id="Gruppe_64543" data-name="Gruppe 64543">
        <g id="Gruppe_64542" data-name="Gruppe 64542" clip-path="url(#clip-path-22)">
          <g id="Gruppe_64541" data-name="Gruppe 64541" transform="translate(23.958 15.05)">
            <path id="Pfad_175465" data-name="Pfad 175465" d="M42.437,1.566C52.923.285,63.5-.827,74.147-1.362,69.6.192,64.875,1.583,60.909,3.734c-35.765,19.329-56.788,49.7-53.7,79.883,1.392,12.526,5.306,26.869,22.17,34.7,11.681,5.141,27.2,6.949,35.571,14.947,10.986,10.911,14.535,24.007,18.235,36.578,7.254,28.483,9.618,57.366,12.483,86.135,5.263,53.337,7.028,107.042,21.233,159.818,7.808,30.01,25.005,58.742,30.955,88.969-11.053-.965-21.536-3.849-31.3-7.224-4.579-18.683-12.656-36.875-20.381-55.083C84.7,415.889,78.95,388.461,74.9,361.051c-6.328-44.924-8.649-90.029-13.609-135.018-2.8-21.767-5.268-43.649-12.352-65.048C45.429,151.135,41.6,140.77,31.421,132.8c-10.51-7.673-28.455-7.192-39.593-14.248-11.785-7.594-15.078-18.748-16.737-29.04C-27.944,68.317-19.867,46.34-1.232,28.7,10.6,18.141,23.664,7.15,42.437,1.566" transform="translate(25.532 1.362)" fill="#041b2b"></path>
          </g>
        </g>
      </g>
    </g>
    <g id="Gruppe_64548" data-name="Gruppe 64548" transform="translate(871.159 300.733)" opacity="0.15" style="mix-blend-mode: darken;isolation: isolate">
      <g id="Gruppe_64547" data-name="Gruppe 64547">
        <g id="Gruppe_64546" data-name="Gruppe 64546" clip-path="url(#clip-path-23)">
          <g id="Gruppe_64545" data-name="Gruppe 64545" transform="translate(23.959 15.05)">
            <path id="Pfad_175466" data-name="Pfad 175466" d="M43.445,2.746C53.67.624,64.188-.872,74.677-2.388,57.1,3.978,44.018,14.249,32.179,24.549,13.145,41.672,4.749,63.273,7.406,84.195c1.272,10.488,4.153,21.8,15.419,29.872,10.686,7.5,28.4,5.478,40.283,11.595,8.636,4.784,12.586,11.939,16.018,18.733,5.721,12.582,8.742,25.594,11.194,38.59,7.371,41.394,9.426,83.07,14.093,124.605,3.69,33.291,7.765,66.751,19.433,99.343,8.471,22.949,21.944,45.053,28.189,68.359a177.874,177.874,0,0,1-28.378-20.849c-4.624-15.39-13.776-29.967-21.771-44.7C88.68,385.446,83.073,359.81,78.7,334.319c-7.5-46.558-9.7-93.392-17.256-139.937-2.641-15.652-5.881-31.353-12.653-46.511-3.573-6.732-7.43-13.943-16.3-18.565-12.1-5.614-29.222-1.707-40.916-8-10.829-5.981-14.141-15.607-16.231-24.286C-29.693,73.894-22.016,49.165.2,30.438,12.514,20.041,25.756,9.48,43.445,2.746" transform="translate(26.139 2.388)" fill="#041b2b"></path>
          </g>
        </g>
      </g>
    </g>
    <g id="Gruppe_64552" data-name="Gruppe 64552" transform="translate(1127.662 300.701)" opacity="0.15" style="mix-blend-mode: darken;isolation: isolate">
      <g id="Gruppe_64551" data-name="Gruppe 64551">
        <g id="Gruppe_64550" data-name="Gruppe 64550" clip-path="url(#clip-path-24)">
          <g id="Gruppe_64549" data-name="Gruppe 64549" transform="translate(23.958 15.049)">
            <path id="Pfad_175467" data-name="Pfad 175467" d="M25.842,8.455C34.992,1.515,45.8-7.423,61.32-7.352Q77.376-4.83,93.172-1.669C80.91-1.2,71.74,4.809,63.836,10.248,37.976,30.039,20.452,54.745,16.16,80.59c-2.09,12.952-.958,27.247,10.72,38.362C37.6,128.915,58.03,130.5,70.691,139.009c13.579,8.665,18.339,21.178,23.333,32.663,17.714,49.134,19.92,99.981,37.208,149.18,6.088,16.561,14.24,34.434,35.587,45.589,13.34,6.48,25.407,14.435,31.49,24.676-13.6,11.436-28.117,22.409-43.091,33.1a94.311,94.311,0,0,0-8.854-15.158c-8.9-12.41-23.871-22.545-32.171-35.161-8.167-11.6-13.015-24.016-16.958-36.464-16.428-55-17.769-111.379-34.038-166.389-4.187-12.169-8.394-24.8-19.162-35.365-8.78-8.751-24.465-12.367-37.328-17.918C-9.247,110.49-14.531,97.256-15.487,85.3-16.685,57.544-.307,30.207,25.842,8.455" transform="translate(15.548 7.352)" fill="#041b2b"></path>
          </g>
        </g>
      </g>
    </g>
    <g id="Gruppe_64556" data-name="Gruppe 64556" transform="translate(804.362 311.47)" opacity="0.15" style="mix-blend-mode: darken;isolation: isolate">
      <g id="Gruppe_64555" data-name="Gruppe 64555">
        <g id="Gruppe_64554" data-name="Gruppe 64554" clip-path="url(#clip-path-25)">
          <g id="Gruppe_64553" data-name="Gruppe 64553" transform="translate(23.959 15.05)">
            <path id="Pfad_175468" data-name="Pfad 175468" d="M47.6,3.273C57.254.781,67.359-.892,77.291-2.846,56.764,5.846,41.271,18.669,27.02,31.373,6.323,50.683,1.036,75.564,7.536,98.35c2.313,7.381,6.2,15.637,16.593,19.941,13.223,5.272,30.713-1.578,43.339,4.547,8.982,4.844,12.8,12.268,16.249,19.23,7.811,18.081,11.04,36.8,14.005,55.421,6.722,42.615,9.275,85.5,18.733,127.931,3.9,16.742,8.857,33.529,18.547,49.332,8.452,14.093,20.756,27.234,26.522,41.983a332.848,332.848,0,0,1-23.852-30.115c-7.294-11.363-19.077-21.145-28.9-31.59-14.8-18.643-20.176-39.6-24.84-60.12C74.77,252.464,72.284,209.5,61.449,167.187c-2.824-10.316-6.157-20.694-12.765-30.309-3.711-4.818-8.835-9.954-17.522-11.189-13.137-1.12-25.7,4.521-38.805,1.774-7.765-1.843-12.059-6.869-14.892-11.584-10.459-21.812-7.417-46.6,8.652-66.99C-3.469,37,10.183,26.458,24.292,16.341,31.4,11.544,38.558,6.577,47.6,3.273" transform="translate(28.639 2.846)" fill="#041b2b"></path>
          </g>
        </g>
      </g>
    </g>
    <g id="Gruppe_64560" data-name="Gruppe 64560" transform="translate(1189.292 313.745)" opacity="0.15" style="mix-blend-mode: darken;isolation: isolate">
      <g id="Gruppe_64559" data-name="Gruppe 64559">
        <g id="Gruppe_64558" data-name="Gruppe 64558" clip-path="url(#clip-path-26)">
          <g id="Gruppe_64557" data-name="Gruppe 64557" transform="translate(23.96 15.05)">
            <path id="Pfad_175469" data-name="Pfad 175469" d="M29.408,7.674C38.06,1.151,48.567-6.712,63-6.673c11.588,2.511,23.1,5.313,34.261,8.529C86.981,1.14,78.127,5.313,71.2,9.7,57.77,18.342,47.39,28.74,38.566,39.513c-16.473,20.38-27.856,43.271-25.175,66.5,1.11,9.479,5.694,19.46,17.349,25.794-9.546-3.272-19.372-6.287-28.482-10.064-18.579-9.181-21.076-25.991-19.593-39.962C-14.128,54.742,3.631,28.873,29.408,7.674" transform="translate(17.693 6.673)" fill="#041b2b"></path>
          </g>
        </g>
      </g>
    </g>
    <g id="Gruppe_64564" data-name="Gruppe 64564" transform="translate(-23.959 319.503)" opacity="0.15" style="mix-blend-mode: darken;isolation: isolate">
      <g id="Gruppe_64563" data-name="Gruppe 64563">
        <g id="Gruppe_64562" data-name="Gruppe 64562" clip-path="url(#clip-path-27)">
          <g id="Gruppe_64561" data-name="Gruppe 64561" transform="translate(23.959 15.049)">
            <path id="Pfad_175470" data-name="Pfad 175470" d="M0,0C12.035,21.3,23.541,42.768,32.251,64.754,52.757,118.3,59.94,173.466,77.512,227.384c6.354,19.135,14.141,38.231,26.634,56.119,10.358,15.059,25.362,28.554,35.733,43.611,12.837,18.069,18.991,37.732,24,57.242-8.993,9.729-18.5,19.285-28.769,28.472-4.723-26.7-12.171-53.5-27.976-78.471C97.6,319.223,85.7,304.745,76.892,289.42c-15.3-25.9-23.831-53.2-31.075-80.44C30.67,152.76,23.086,95.522,0,40.313Z" fill="#041b2b"></path>
          </g>
        </g>
      </g>
    </g>
    <g id="Gruppe_64568" data-name="Gruppe 64568" transform="translate(737.138 323.519)" opacity="0.15" style="mix-blend-mode: darken;isolation: isolate">
      <g id="Gruppe_64567" data-name="Gruppe 64567">
        <g id="Gruppe_64566" data-name="Gruppe 64566" clip-path="url(#clip-path-28)">
          <g id="Gruppe_64565" data-name="Gruppe 64565" transform="translate(23.959 15.049)">
            <path id="Pfad_175471" data-name="Pfad 175471" d="M59.5,1.992C65.77.814,71.941-.593,78.234-1.732,56.376,8.472,40.9,23.255,24.46,36.882-1.634,58.386-8.193,88.187,3.211,114.147c2.931,7.579,13.691,14.786,26.845,11.881-5.476,1.784-11.522,2.812-16.875,4.706,15.994,9.391,19.124,24.2,24.51,37,11.05,29.152,13.726,60.03,33.178,87.619-10.076-8.434-20.456-16.714-30.675-25.067-16.428-19.9-20.458-42.8-30.332-64.162-4.608-10.06-8.891-20.649-19.22-28.995.724-.482,3.152-1.307.8-.894-15.232,2.483-21.978-8.426-24.385-16.1-6.125-20.47-2.723-42.826,13.342-61.152C-6.482,45.239,9.1,32.543,24.588,19.895c9.621-7.267,19.729-15.65,34.911-17.9" transform="translate(35.797 1.732)" fill="#041b2b"></path>
          </g>
        </g>
      </g>
    </g>
    <g id="Gruppe_64572" data-name="Gruppe 64572" transform="translate(1246.074 331.483)" opacity="0.15" style="mix-blend-mode: darken;isolation: isolate">
      <g id="Gruppe_64571" data-name="Gruppe 64571">
        <g id="Gruppe_64570" data-name="Gruppe 64570" clip-path="url(#clip-path-29)">
          <g id="Gruppe_64569" data-name="Gruppe 64569" transform="translate(23.958 15.051)">
            <path id="Pfad_175472" data-name="Pfad 175472" d="M43.264,2.994c6.362-3.455,14.487-6.54,23.147-5.33,11.375,3.18,22.7,6.476,33.758,10.1-8.042-.946-15.9,1.281-22.029,4.487-13.193,6.757-22.99,15.785-31.9,24.9C26.371,58.221,11.713,81.94,9.1,106.74c-1.227,12.139.788,25.783,14.176,35.148-2.454-.778-4.55-1.935-6.847-2.853,8.077,8.523,13.265,18.023,17.482,27.6,12.672,28.885,18.965,58.753,31.666,87.643C70.471,264.3,75.465,274.8,86.326,282.9c6.756,5.014,17.988,6.751,27.691,4.779,14.671-2.277,31.221-9.757,45.91-3.52-14.846,14.519-30.343,28.758-46.009,42.914-8.117-9.92-26.8-11.006-41.808-13.483-21.3-5.214-28.884-20.713-35.2-33.529-16.2-37.993-20.9-77.516-34.45-115.876-5.99-14.878-11.064-31.285-28.487-42.6,6.921,2.251,13.066,5.366,19.95,7.65C-18.829,121.012-22,108.8-21.709,97.622c.918-25.587,15.722-50.192,36.226-71.8,8.087-8.3,17.056-16.46,28.748-22.829" transform="translate(26.03 2.604)" fill="#041b2b"></path>
          </g>
        </g>
      </g>
    </g>
    <g id="Gruppe_64576" data-name="Gruppe 64576" transform="translate(471.693 340.629)" opacity="0.15" style="mix-blend-mode: darken;isolation: isolate">
      <g id="Gruppe_64575" data-name="Gruppe 64575">
        <g id="Gruppe_64574" data-name="Gruppe 64574" clip-path="url(#clip-path-30)">
          <g id="Gruppe_64573" data-name="Gruppe 64573" transform="translate(23.959 15.05)">
            <path id="Pfad_175473" data-name="Pfad 175473" d="M94.728.413c9.623-2.058,19.487.6,29.185,1.021-9.677.722-17.783,4.631-24.363,9.03-11.556,7.847-20.7,16.989-29.427,26.187C49.72,58.6,32.714,81.767,13.749,104.224-2.636,124.393-21.872,144.687-24.6,167.972c-.346,8.809-1.408,18.546,6.1,26.385,1.855,2.187,5.851,2.918,9.448,2.651-11.13,2.969-22.348,5.852-33.848,8.181-8.9-.142-11.671-6.6-13.066-11.238-4.174-19.092,4.909-38.1,17.474-55.2,8.266-11.444,17.711-22.508,26.413-33.82C9.666,78.34,28.652,50.7,54.424,25.566,65.114,15.752,76.269,4.486,94.728.413" transform="translate(56.993 0.36)" fill="#041b2b"></path>
          </g>
        </g>
      </g>
    </g>
    <g id="Gruppe_64580" data-name="Gruppe 64580" transform="translate(608.429 340.807)" opacity="0.15" style="mix-blend-mode: darken;isolation: isolate">
      <g id="Gruppe_64579" data-name="Gruppe 64579">
        <g id="Gruppe_64578" data-name="Gruppe 64578" clip-path="url(#clip-path-31)">
          <g id="Gruppe_64577" data-name="Gruppe 64577" transform="translate(23.957 15.05)">
            <path id="Pfad_175474" data-name="Pfad 175474" d="M72.594.815C79.813.409,87.422-.718,94.356-.709c-16.225,5.1-26.573,15.177-36.923,24.3C39.749,40.915,22.69,58.5,5.53,76.035c-15.754,15.882-23.522,34.94-21.409,53.78.932,7.157,1.951,14.745,8.223,20.911,2.827,2.722,8.106,4.042,13.026,3.33-11.439,3.952-22.95,7.839-34.714,11.382-7.092,1.423-5.5-3.231-7.576-7.271-7.025-11.647-8.071-26.907-5.425-39.042,3.32-14.571,8.982-24.516,20.791-36.885C-.526,60.712,17.811,38.043,41.16,17.5,49.758,10.83,58.836,2.944,72.594.815" transform="translate(43.676 0.709)" fill="#041b2b"></path>
          </g>
        </g>
      </g>
    </g>
    <g id="Gruppe_64584" data-name="Gruppe 64584" transform="translate(1945.826 362.176)" opacity="0.15" style="mix-blend-mode: darken;isolation: isolate">
      <g id="Gruppe_64583" data-name="Gruppe 64583">
        <g id="Gruppe_64582" data-name="Gruppe 64582" clip-path="url(#clip-path-32)">
          <g id="Gruppe_64581" data-name="Gruppe 64581" transform="translate(23.96 15.049)">
            <path id="Pfad_175475" data-name="Pfad 175475" d="M49.939,145.224C21.244,136.018,5.474,116.687-5.931,98.2-29.772,58.564-37.256,14.263-22.4-27.365-15.818-44.034-5.744-61.257,14.743-72.91c-6.149,1.64-11.42,4.416-17.586,6C18.236-85.3,34.9-105.6,49.939-126.282v40.4a71.133,71.133,0,0,0-16.1,14.564C20.485-54.272,14.772-35.169,12.427-16.247c-3.439,27.821,1.981,55.87,13.052,82.773a186.571,186.571,0,0,0,24.459,42.306Z" transform="translate(30.046 126.282)" fill="#041b2b"></path>
          </g>
        </g>
      </g>
    </g>
  </g>
</svg>
